# xmcd CD database file
#
# Track frame offsets:
#	150
#	29325
#	48216
#	72987
#	91380
#	109943
#	134741
#	155185
#	174547
#	196287
#
# Disc length: 2905 seconds
#
# Revision: 4
# Processed by: cddbd v1.5.2PL0 Copyright (c) Steve Scherf et al.
# Submitted via: CDex 1.70beta3
#
DISCID=900b570a
DTITLE=谷村新司 - サライ
DYEAR=1992
DGENRE=Pop
TTITLE0=サライ（with加山雄三）
TTITLE1=三都物語
TTITLE2=ダンディズム
TTITLE3=小さな肩に雨が降る
TTITLE4=青年の樹
TTITLE5=マイ・ボーイ
TTITLE6=いい日旅立ち
TTITLE7=浪漫鉄道＜躊躇篇＞
TTITLE8=遠くで汽笛を聞きながら
TTITLE9=忘れないで
EXTD=YEAR: 1992
EXTT0=
EXTT1=
EXTT2=
EXTT3=
EXTT4=
EXTT5=
EXTT6=
EXTT7=
EXTT8=
EXTT9=
PLAYORDER=
